<?xml version="1.0" standalone="no"?>
<!DOCTYPE svg PUBLIC "-//W3C//DTD SVG 20010904//EN"
 "http://www.w3.org/TR/2001/REC-SVG-20010904/DTD/svg10.dtd">
<svg version="1.0" xmlns="http://www.w3.org/2000/svg"
 width="177.000000pt" height="92.000000pt" viewBox="0 0 177.000000 92.000000"
 preserveAspectRatio="xMidYMid meet">

<g transform="translate(0.000000,92.000000) scale(0.100000,-0.100000)"
fill="#000000" stroke="none">
<path d="M311 639 c-90 -127 -165 -239 -168 -249 -5 -18 2 -19 94 -22 l99 -3
-33 -154 c-20 -93 -30 -158 -24 -164 9 -9 351 461 351 483 0 6 -38 10 -100 10
-99 0 -100 0 -95 23 9 41 65 301 65 304 0 2 -6 3 -12 3 -7 0 -87 -104 -177
-231z"/>
<path d="M920 460 l0 -410 410 0 410 0 0 410 0 410 -410 0 -410 0 0 -410z
m245 100 c0 -23 -4 -25 -47 -28 -40 -3 -48 -6 -48 -23 0 -16 7 -19 40 -19 36
0 40 -2 40 -25 0 -22 -4 -25 -40 -25 -36 0 -40 -2 -40 -25 0 -23 3 -25 50 -25
49 0 50 -1 50 -30 l0 -30 -85 0 -85 0 0 130 0 131 83 -3 c80 -3 82 -4 82 -28z
m188 16 c53 -22 71 -50 71 -111 0 -91 -49 -133 -156 -134 l-48 -1 0 130 0 130
50 0 c28 0 65 -6 83 -14z m291 -1 c19 -14 19 -15 1 -35 -13 -14 -22 -17 -36
-10 -38 21 -78 -15 -79 -71 0 -49 27 -74 73 -65 25 5 38 2 48 -10 11 -14 10
-19 -10 -35 -49 -40 -136 -16 -166 47 -42 90 16 194 107 194 24 0 52 -7 62
-15z"/>
<path d="M1290 464 c0 -67 2 -74 19 -74 25 0 51 36 51 70 0 32 -23 66 -50 73
-19 5 -20 1 -20 -69z"/>
</g>
</svg>
