<?xml version="1.0" standalone="no"?>
<!DOCTYPE svg PUBLIC "-//W3C//DTD SVG 20010904//EN"
 "http://www.w3.org/TR/2001/REC-SVG-20010904/DTD/svg10.dtd">
<svg version="1.0" xmlns="http://www.w3.org/2000/svg"
 width="894.000000pt" height="417.000000pt" viewBox="0 0 894.000000 417.000000"
 preserveAspectRatio="xMidYMid meet">

<g transform="translate(0.000000,417.000000) scale(0.100000,-0.100000)"
fill="#000000" stroke="none">
<path d="M4637 3498 c-105 -140 -430 -606 -431 -618 -1 -12 21 -15 132 -18
104 -2 132 -5 132 -16 0 -13 -43 -216 -74 -351 -14 -59 -9 -84 13 -70 17 10
453 625 458 646 5 18 -2 19 -131 19 -75 0 -136 3 -136 6 0 4 9 45 19 93 48
213 71 321 71 331 0 21 -30 9 -53 -22z"/>
<path d="M3246 3321 l-59 -60 25 -38 c122 -179 165 -228 259 -295 52 -37 101
-67 109 -67 8 -1 186 -172 395 -381 l380 -380 -100 -100 c-55 -55 -107 -100
-115 -100 -9 0 -42 27 -75 61 -33 33 -73 67 -88 75 -52 28 -117 -6 -132 -68
-4 -16 -14 -28 -21 -28 -50 0 -128 -72 -665 -609 -629 -629 -606 -602 -597
-724 3 -35 13 -78 23 -97 31 -60 222 -247 282 -276 61 -30 134 -36 198 -15 59
19 1185 1142 1214 1211 16 38 28 50 61 63 30 12 44 25 56 53 21 50 9 74 -72
154 -35 36 -64 69 -64 75 0 6 46 56 103 113 l102 102 103 -103 c56 -56 102
-107 102 -112 0 -6 -29 -39 -64 -75 -81 -80 -93 -104 -72 -154 12 -28 26 -41
56 -53 33 -13 45 -25 61 -63 29 -69 1155 -1192 1214 -1211 64 -21 137 -15 198
15 60 29 251 216 282 276 10 19 20 62 23 97 9 122 32 95 -597 724 -538 538
-615 609 -665 609 -8 0 -17 13 -21 29 -7 34 -40 67 -76 76 -37 9 -73 -12 -144
-84 -33 -34 -66 -61 -75 -61 -8 0 -60 45 -115 100 l-100 100 380 380 c209 209
387 380 395 381 8 0 57 30 109 67 94 67 137 116 259 295 l25 38 -59 60 c-32
32 -64 57 -71 55 -6 -3 -68 -46 -137 -96 -115 -85 -129 -98 -187 -187 -35 -52
-64 -102 -65 -111 -2 -9 -173 -186 -381 -394 l-378 -378 -378 378 c-208 208
-379 385 -381 394 -1 9 -30 59 -65 111 -58 89 -72 102 -187 187 -69 50 -131
93 -137 96 -7 2 -39 -23 -71 -55z m538 -1565 c50 -21 76 -60 76 -115 l0 -45
-442 -443 c-335 -335 -451 -446 -476 -453 -48 -13 -101 7 -129 49 -27 40 -29
71 -8 115 23 47 874 893 905 899 14 2 29 5 33 6 4 0 22 -5 41 -13z m1476 -17
c14 -9 215 -208 447 -441 369 -370 422 -428 428 -461 17 -89 -61 -160 -147
-136 -25 6 -147 122 -475 452 l-443 443 0 45 c0 103 107 158 190 98z m-1170
-267 c32 -24 55 -89 46 -128 -5 -20 -137 -159 -450 -473 -434 -434 -444 -443
-488 -448 -57 -7 -100 15 -122 61 -24 50 -20 88 13 132 45 60 842 851 876 869
36 19 89 14 125 -13z m867 17 c29 -11 834 -805 884 -873 33 -44 37 -82 13
-132 -22 -46 -65 -68 -122 -61 -44 5 -54 15 -479 438 -239 239 -441 447 -450
463 -29 55 1 136 60 161 39 17 57 18 94 4z"/>
<path d="M140 2305 l0 -515 518 2 517 3 3 74 c2 53 -1 77 -10 82 -7 5 -172 9
-365 9 l-353 0 0 130 0 130 288 2 287 3 3 83 3 82 -291 0 -290 0 0 130 0 130
353 0 c193 0 358 4 365 9 9 5 12 29 10 82 l-3 74 -517 3 -518 2 0 -515z"/>
<path d="M1485 2808 c-3 -7 -4 -238 -3 -513 l3 -500 445 0 445 0 3 74 c2 53
-1 77 -10 82 -7 5 -138 9 -290 9 l-278 0 -2 428 -3 427 -153 3 c-116 2 -154 0
-157 -10z"/>
<path d="M2530 2305 l0 -515 518 2 517 3 3 74 c2 53 -1 77 -10 82 -7 5 -172 9
-365 9 l-353 0 0 130 0 130 288 2 287 3 3 83 3 82 -291 0 -290 0 0 130 0 130
353 0 c193 0 358 4 365 9 9 5 12 29 10 82 l-3 74 -517 3 -518 2 0 -515z"/>
<path d="M5587 2813 c-4 -3 -7 -35 -7 -69 l0 -63 -67 -3 -68 -3 0 -155 0 -155
67 -3 67 -3 3 -67 3 -67 288 -3 287 -2 0 -135 0 -135 -205 0 -204 0 -3 73 -3
72 -150 0 -150 0 -3 -82 -3 -83 71 0 70 0 0 -64 c0 -42 5 -67 14 -75 9 -8 116
-11 372 -9 l359 3 3 72 3 72 72 3 72 3 0 150 0 150 -72 3 -72 3 -3 72 -3 72
-287 3 -288 2 0 130 0 130 205 0 204 0 3 -67 3 -68 155 0 155 0 0 80 0 80 -72
3 -73 3 0 69 0 70 -368 0 c-203 0 -372 -3 -375 -7z"/>
<path d="M6787 2813 c-12 -11 -8 -138 5 -151 8 -8 55 -12 145 -12 l133 0 0
-350 0 -349 -142 -3 -143 -3 -3 -71 c-2 -52 1 -74 11 -83 11 -8 129 -11 448
-9 l434 3 0 80 0 80 -142 3 -143 3 0 349 0 350 133 0 c72 0 138 4 145 9 9 5
12 29 10 82 l-3 74 -441 3 c-242 1 -444 -1 -447 -5z"/>
<path d="M7977 2813 c-4 -3 -7 -35 -7 -69 l0 -63 -67 -3 -68 -3 0 -155 0 -155
67 -3 67 -3 3 -67 3 -67 288 -3 287 -2 0 -135 0 -135 -205 0 -204 0 -3 73 -3
72 -150 0 -150 0 -3 -82 -3 -83 71 0 70 0 0 -64 c0 -42 5 -67 14 -75 9 -8 116
-11 372 -9 l359 3 3 72 3 72 72 3 72 3 0 150 0 150 -72 3 -72 3 -3 72 -3 72
-287 3 -288 2 0 130 0 130 205 0 204 0 3 -67 3 -68 155 0 155 0 0 80 0 80 -72
3 -73 3 0 69 0 70 -368 0 c-203 0 -372 -3 -375 -7z"/>
</g>
</svg>
